HIERARCHY
ROOT Hips
{
	OFFSET 0.00000 0.00000 0.00000
	CHANNELS 6 Xposition Yposition Zposition Zrotation Yrotation Xrotation 
	JOINT LHipJoint
	{
		OFFSET 0 0 0
		CHANNELS 3 Zrotation Yrotation Xrotation
		JOINT LeftHip
		{
			OFFSET 1.48831 -1.59570 0.95625
			CHANNELS 3 Zrotation Yrotation Xrotation
			JOINT LeftKnee
			{
				OFFSET 2.20856 -6.06797 0.00000
				CHANNELS 3 Zrotation Yrotation Xrotation
				JOINT LeftAnkle
				{
					OFFSET 2.62924 -7.22379 0.00000
					CHANNELS 3 Zrotation Yrotation Xrotation
					JOINT LeftToe
					{
						OFFSET 0.16802 -0.46163 2.41673
						CHANNELS 3 Zrotation Yrotation Xrotation
						End Site
						{
							OFFSET 0.00000 -0.00000 1.23760
						}
					}
				}
			}
		}
	}
	JOINT RHipJoint
	{
		OFFSET 0 0 0
		CHANNELS 3 Zrotation Yrotation Xrotation
		JOINT RightHip
		{
			OFFSET -1.56796 -1.59570 0.95625
			CHANNELS 3 Zrotation Yrotation Xrotation
			JOINT RightKnee
			{
				OFFSET -2.29239 -6.29829 0.00000
				CHANNELS 3 Zrotation Yrotation Xrotation
				JOINT RightAnkle
				{
					OFFSET -2.66963 -7.33475 0.00000
					CHANNELS 3 Zrotation Yrotation Xrotation
					JOINT RightToe
					{
						OFFSET -0.18185 -0.49964 2.34359
						CHANNELS 3 Zrotation Yrotation Xrotation
						End Site
						{
							OFFSET -0.00000 -0.00000 1.20477
						}
					}
				}
			}
		}
	}
	JOINT lowerback
	{
		OFFSET 0 0 0
		CHANNELS 3 Zrotation Yrotation Xrotation
		JOINT Chest
		{
			OFFSET 0.03505 2.15832 -0.34324
			CHANNELS 3 Zrotation Yrotation Xrotation
			JOINT Chest2
			{
				OFFSET -0.01089 2.17963 0.04689
				CHANNELS 3 Zrotation Yrotation Xrotation
				JOINT lowerneck
				{
					OFFSET 0 0 0
					CHANNELS 3 Zrotation Yrotation Xrotation
					JOINT Neck
					{
						OFFSET 0.04686 1.69404 0.22159
						CHANNELS 3 Zrotation Yrotation Xrotation
						JOINT Head
						{
							OFFSET 0.00265 1.69305 -0.01513
							CHANNELS 3 Zrotation Yrotation Xrotation
							End Site
							{
								OFFSET -0.00415 1.80215 -0.03034
							}
						}
					}
				}
				JOINT LeftCollar
				{
					OFFSET 0 0 0
					CHANNELS 3 Zrotation Yrotation Xrotation
					JOINT LeftShoulder
					{
						OFFSET 3.67184 1.11724 -0.19002
CHANNELS 3 Zrotation Xrotation Yrotation
						JOINT LeftElbow
						{
OFFSET 0 -5.177140 -0.000000
CHANNELS 3 Zrotation Xrotation Yrotation
							JOINT LeftWrist
							{
OFFSET 0 -3.436790 -0.000000
CHANNELS 3 Zrotation Xrotation Yrotation
								JOINT lhand
								{
									OFFSET 0 0 0
CHANNELS 3 Zrotation Xrotation Yrotation
									JOINT LFingers
									{
OFFSET 0 -0.573120 -0.000000
CHANNELS 3 Zrotation Xrotation Yrotation
										End Site
										{
OFFSET 0 -0.462060 -0.000000
										}
									}
								}
								JOINT LThumb
								{
OFFSET 0 0.000000 0.000000
CHANNELS 3 Zrotation Xrotation Yrotation
									End Site
									{
OFFSET 0 -0.469120 0.469120
									}
								}
							}
						}
					}
				}
				JOINT RightCollar
				{
					OFFSET 0 0 0
					CHANNELS 3 Zrotation Yrotation Xrotation
					JOINT RightShoulder
					{
						OFFSET -3.59596 0.95831 -0.26050
CHANNELS 3 Zrotation Xrotation Yrotation
						JOINT RightElbow
						{
OFFSET 0 -5.239080 -0.000000
CHANNELS 3 Zrotation Xrotation Yrotation
							JOINT RightWrist
							{
OFFSET 0 -3.464850 -0.000000
CHANNELS 3 Zrotation Xrotation Yrotation
								JOINT rhand
								{
									OFFSET 0 0 0
CHANNELS 3 Zrotation Xrotation Yrotation
									JOINT RFingers
									{
OFFSET 0 -0.608750 -0.000000
CHANNELS 3 Zrotation Xrotation Yrotation
										End Site
										{
OFFSET 0 -0.490790 -0.000000
										}
									}
								}
								JOINT RThumb
								{
OFFSET 0 0.000000 0.000000
CHANNELS 3 Zrotation Xrotation Yrotation
									End Site
									{
OFFSET 0 -0.498290 0.498290
									}
								}
							}
						}
					}
				}
			}
		}
	}
}
MOTION
Frames: 9
Frame Time: 0.008333333333333333
27.080743 15.499685 -2.109600 -179.977265 -45.576447 194.211117 0.000000 0.000000 0.000000 -22.745677 -10.031613 -45.934612 6.172314 14.593253 45.669495 0.527939 -0.100143 -13.695365 0.000020 -0.023590 -0.064849 0.000000 0.000000 0.000000 21.736202 4.624590 -27.885601 -10.824093 -17.847909 62.209091 -1.816201 -4.876551 -27.591928 -0.932255 6.150469 -17.221643 3.536666 -0.037086 19.874199 -0.472480 -1.801533 14.958879 -2.305685 -1.478798 5.144200 3.348865 0.819728 11.595817 -0.600441 1.072811 -24.955743 -0.845085 -0.095420 -9.787438 0.000000 0.000000 0.000000 7.493792 -21.013392 -30.583292 73.303725 -58.920057 45.592989 19.665296 -11.144597 -9.563774 0.000000 0.000000 0.000000 -7.125000 0.000000 0.000000 -6.405551 40.044188 -0.786273 0.000000 0.000000 0.000000 -6.343172 -15.192144 39.140334 -76.727692 -59.323845 -48.531932 -30.903818 12.229488 6.069752 0.000000 0.000000 0.000000 7.125000 0.000000 0.000000 -3.546281 37.023996 -0.696973
26.980546 15.502631 -2.154410 -179.984930 -45.516913 194.318421 0.000000 0.000000 0.000000 -22.976672 -9.889534 -45.624248 6.181780 14.602238 45.707177 0.574224 -0.348859 -14.201309 0.000100 0.053952 0.148182 0.000000 0.000000 0.000000 21.232376 4.702096 -28.520840 -11.243585 -18.052073 63.569903 -1.572649 -4.949640 -25.913868 -0.938034 6.169111 -17.275807 3.527677 -0.060162 19.808627 -0.482101 -1.838314 14.976876 -2.307931 -1.496973 5.195217 3.348135 0.841001 11.629159 -0.616870 1.098715 -24.998930 -0.853842 -0.083341 -9.808490 0.000000 0.000000 0.000000 7.471134 -21.164391 -30.734913 73.222731 -58.909276 45.523696 19.656740 -11.218981 -9.513448 0.000000 0.000000 0.000000 -7.125000 0.000000 0.000000 -6.405257 39.990682 -0.794745 0.000000 0.000000 0.000000 -6.396807 -15.235820 39.104626 -76.639217 -59.314638 -48.455928 -30.887441 12.184222 6.052395 0.000000 0.000000 0.000000 7.125000 0.000000 0.000000 -3.532341 37.002739 -0.696031
26.886016 15.506526 -2.196252 -179.994444 -45.377312 194.431005 0.000000 0.000000 0.000000 -23.197673 -9.744967 -45.309767 6.179732 14.600335 45.699029 0.619929 -0.536359 -14.702360 0.000791 0.180312 0.495383 0.000000 0.000000 0.000000 20.614209 4.960135 -29.374077 -11.766794 -18.290327 65.247512 -1.293913 -5.033442 -23.836604 -0.897891 6.039056 -16.897899 3.466996 -0.050463 19.784868 -0.492551 -1.836951 14.977732 -2.285945 -1.500886 5.207732 3.348790 0.869241 11.604603 -0.645150 1.128215 -25.018131 -0.866991 -0.068376 -9.809581 0.000000 0.000000 0.000000 7.437312 -21.259390 -30.889812 73.291775 -58.918443 45.582821 19.707888 -11.283322 -9.424736 0.000000 0.000000 0.000000 -7.125000 0.000000 0.000000 -6.347479 39.901643 -0.801435 0.000000 0.000000 0.000000 -6.456405 -15.258896 39.090972 -76.620558 -59.312705 -48.439849 -30.903080 12.180350 6.071877 0.000000 0.000000 0.000000 7.125000 0.000000 0.000000 -3.545654 37.026363 -0.696681
26.799474 15.510106 -2.233364 -180.085247 -45.278827 194.625760 0.000000 0.000000 0.000000 -23.436870 -9.705532 -45.029102 6.165230 14.586620 45.641347 0.649419 -0.479267 -15.069958 0.004157 -0.398902 -1.095969 0.000000 0.000000 0.000000 19.833325 5.244277 -30.646565 -12.444290 -18.571873 67.389871 -0.975747 -5.295273 -21.289144 -0.819188 5.774921 -16.132684 3.347508 -0.054406 19.802753 -0.495843 -1.857570 14.964879 -2.218227 -1.520870 5.182257 3.327983 0.904635 11.561661 -0.681352 1.157807 -25.060750 -0.879082 -0.052092 -9.815496 0.000000 0.000000 0.000000 7.366399 -21.301856 -31.024831 73.496221 -58.945415 45.757900 19.785822 -11.299821 -9.338764 0.000000 0.000000 0.000000 -7.125000 0.000000 0.000000 -6.267178 39.817707 -0.804163 0.000000 0.000000 0.000000 -6.565633 -15.307922 39.100306 -76.650985 -59.315849 -48.466019 -30.928374 12.188537 6.116141 0.000000 0.000000 0.000000 7.125000 0.000000 0.000000 -3.567231 37.079247 -0.696253
26.719568 15.512769 -2.268275 -180.155242 -45.159347 194.816715 0.000000 0.000000 0.000000 -23.645145 -9.634771 -44.755234 6.133540 14.556561 45.515386 0.683626 -0.447647 -15.476940 0.023058 -0.979944 -2.693539 0.000000 0.000000 0.000000 18.962647 5.538174 -32.330278 -13.269798 -18.877066 69.961069 -0.634210 -5.806009 -18.263304 -0.714068 5.399991 -15.053055 3.203208 -0.037665 19.819463 -0.497873 -1.856194 14.955964 -2.138613 -1.532182 5.163381 3.315512 0.923454 11.565973 -0.693297 1.172554 -25.152403 -0.882769 -0.048000 -9.848622 0.000000 0.000000 0.000000 7.334669 -21.351958 -31.139893 73.675123 -58.968696 45.911231 19.763219 -11.333443 -9.356489 0.000000 0.000000 0.000000 -7.125000 0.000000 0.000000 -6.289333 39.834495 -0.804448 0.000000 0.000000 0.000000 -6.676176 -15.405788 39.104288 -76.658816 -59.316710 -48.472704 -30.902780 12.158150 6.076297 0.000000 0.000000 0.000000 7.125000 0.000000 0.000000 -3.545389 37.031478 -0.696127
26.646908 15.514755 -2.300537 -180.171811 -44.944020 194.964017 0.000000 0.000000 0.000000 -23.808369 -9.470671 -44.502129 6.091834 14.516760 45.349323 0.729032 -0.680601 -15.916486 0.014657 -0.780946 -2.146290 0.000000 0.000000 0.000000 17.952656 5.981675 -34.441190 -14.262282 -19.191369 73.003682 -0.283046 -6.609033 -14.591016 -0.564243 4.810648 -13.369285 3.033683 0.018888 19.858102 -0.511811 -1.809226 14.949867 -2.064042 -1.523294 5.139099 3.314911 0.931162 11.542799 -0.684286 1.180222 -25.192131 -0.880019 -0.048726 -9.858378 0.000000 0.000000 0.000000 7.329990 -21.411522 -31.226547 73.732719 -58.976081 45.960553 19.728794 -11.345911 -9.373233 0.000000 0.000000 0.000000 -7.125000 0.000000 0.000000 -6.321650 39.849277 -0.806355 0.000000 0.000000 0.000000 -6.750305 -15.545666 39.099367 -76.595264 -59.309997 -48.418077 -30.881903 12.133793 6.052607 0.000000 0.000000 0.000000 7.125000 0.000000 0.000000 -3.527747 37.002747 -0.695170
26.585728 15.517629 -2.328602 -180.232058 -44.623839 195.158960 0.000000 0.000000 0.000000 -23.978580 -9.236102 -44.352011 6.053194 14.479725 45.194823 0.760525 -0.902429 -16.196636 0.013215 -0.742034 -2.039353 0.000000 0.000000 0.000000 16.619799 6.751439 -37.111184 -15.442850 -19.493871 76.566606 0.053742 -7.907643 -10.027171 -0.367347 3.890698 -10.769695 2.792569 0.114197 19.965191 -0.562609 -1.721908 14.934974 -1.992686 -1.499583 5.071324 3.334635 0.938404 11.488292 -0.702721 1.181998 -25.233830 -0.889350 -0.051777 -9.862442 0.000000 0.000000 0.000000 7.407701 -21.467325 -31.260793 73.760896 -58.979722 45.984728 19.689437 -11.349941 -9.383762 0.000000 0.000000 0.000000 -7.125000 0.000000 0.000000 -6.357410 39.857139 -0.809707 0.000000 0.000000 0.000000 -6.763891 -15.688582 39.095497 -76.606487 -59.311190 -48.427736 -30.916779 12.162805 6.081562 0.000000 0.000000 0.000000 7.125000 0.000000 0.000000 -3.557281 37.038469 -0.697890
26.529783 15.525470 -2.355712 -180.406329 -44.147040 195.403240 0.000000 0.000000 0.000000 -24.276079 -8.872211 -44.189365 5.999555 14.427890 44.979821 0.786103 -1.002566 -16.443302 0.017609 -0.856028 -2.352753 0.000000 0.000000 0.000000 14.794779 7.924116 -40.142905 -16.683375 -19.734062 80.261373 0.277908 -9.335995 -4.175568 -0.224914 3.052663 -8.425497 2.443652 0.255510 20.178042 -0.656299 -1.593755 14.912098 -1.910139 -1.464706 4.942181 3.313513 0.962593 11.468343 -0.747203 1.191672 -25.331944 -0.902114 -0.046265 -9.893012 0.000000 0.000000 0.000000 7.520438 -21.470986 -31.231417 73.864744 -58.993087 46.073721 19.665490 -11.391705 -9.394497 0.000000 0.000000 0.000000 -7.125000 0.000000 0.000000 -6.379766 39.866390 -0.811144 0.000000 0.000000 0.000000 -6.779535 -15.789137 39.117810 -76.804622 -59.331705 -48.598128 -30.980882 12.151119 6.066739 0.000000 0.000000 0.000000 7.125000 0.000000 0.000000 -3.611941 37.025374 -0.709775
26.481646 15.524581 -2.381288 -180.703434 -43.621689 195.731793 0.000000 0.000000 0.000000 -24.724223 -8.382028 -44.127756 5.957372 14.386908 44.810420 0.817851 -1.219035 -16.718942 0.008782 -0.602322 -1.655321 0.000000 0.000000 0.000000 12.504399 9.600869 -43.206329 -17.776817 -19.880708 83.487452 0.197660 -9.459771 2.129325 -0.190747 2.812536 -7.757252 2.097466 0.383989 20.399422 -0.813455 -1.490498 14.911526 -1.894599 -1.440105 4.831754 3.249782 0.975135 11.423066 -0.781056 1.175840 -25.427316 -0.900744 -0.050223 -9.918779 0.000000 0.000000 0.000000 7.699482 -21.520280 -31.126011 73.954624 -59.004491 46.150697 19.628237 -11.406568 -9.453528 0.000000 0.000000 0.000000 -7.125000 0.000000 0.000000 -6.420990 39.925404 -0.807041 0.000000 0.000000 0.000000 -6.724416 -15.943478 39.171483 -77.024331 -59.354161 -48.787115 -31.021827 12.185684 6.078197 0.000000 0.000000 0.000000 7.125000 0.000000 0.000000 -3.646808 37.041149 -0.715247
